<?xml version="1.0" encoding="UTF-8"?>
<!DOCTYPE svg PUBLIC "-//W3C//DTD SVG 1.1//EN" "http://www.w3.org/Graphics/SVG/1.1/DTD/svg11.dtd">
<!-- Creator: CorelDRAW -->
<svg xmlns="http://www.w3.org/2000/svg" xml:space="preserve" width="3055px" height="440px" version="1.1" style="shape-rendering:geometricPrecision; text-rendering:geometricPrecision; image-rendering:optimizeQuality; fill-rule:evenodd; clip-rule:evenodd"
viewBox="0 0 148.55 21.41"
 xmlns:xlink="http://www.w3.org/1999/xlink"
 xmlns:xodm="http://www.corel.com/coreldraw/odm/2003">
 <defs>
  <style type="text/css">
   <![CDATA[
    .str1 {stroke:#4B4B4D;stroke-width:0.04;stroke-miterlimit:22.9256}
    .str0 {stroke:#0404E2;stroke-width:0.04;stroke-miterlimit:22.9256}
    .fil2 {fill:#0404E2}
    .fil3 {fill:#3B8EED}
    .fil5 {fill:#5CCB5F}
    .fil6 {fill:#8E8E89}
    .fil0 {fill:white}
    .fil7 {fill:#FEFEFE;fill-rule:nonzero}
    .fil1 {fill:#0404E2;fill-rule:nonzero}
    .fil4 {fill:#3B8EED;fill-rule:nonzero}
   ]]>
  </style>
 </defs>
 <g id="Capa_x0020_1">
  <metadata id="CorelCorpID_0Corel-Layer"/>
  <path class="fil0" d="M3.93 17.38l9.36 0c0.69,0 1.27,0.31 1.59,1.01 0.06,0.11 0.1,0.23 0.13,0.35 0.02,0.06 0.03,0.13 0.04,0.19 0.04,0.15 0.06,0.31 0.06,0.47l0 0.03c0,0.46 -0.13,0.88 -0.39,1.23 -0.18,0.24 -0.4,0.44 -0.65,0.59 -0.09,0.06 -0.19,0.1 -0.3,0.11 -0.14,0.02 -0.28,0.05 -0.42,0.05l-6.29 0c-0.08,0 -0.15,0 -0.22,-0.02l-4.81 0 -0.01 0 -0.72 -0.02c-0.1,0 -0.18,-0.01 -0.27,-0.05 -0.62,-0.25 -1.03,-0.73 -1.03,-1.49l0 -9.92c0,-0.1 0,-0.2 0.02,-0.3l0 -6.87 0 0 0.02 -1.02c0,-0.12 0.01,-0.22 0.05,-0.33 0.22,-0.79 0.66,-1.39 1.44,-1.39l6.18 0c3.28,0 4.79,2.97 4.79,2.96l0.64 -0.25 3.6 5.14c0.94,-1.35 1.88,-2.7 2.82,-4.04l0.01 -0.01 0.04 -0.07c0.41,-0.6 0.81,-1.2 1.21,-1.79 0.18,-0.26 0.36,-0.53 0.54,-0.78 0.06,-0.08 0.13,-0.15 0.21,-0.19 0.36,-0.27 0.76,-0.42 1.2,-0.42l0.03 0c0.96,0 1.62,0.64 1.96,1.62l0 0.01 0.01 0.01 0 0.01c0.01,0.04 0.02,0.08 0.02,0.12l0.02 0.06 0 0.03c0.03,0.22 0.06,0.44 0.06,0.67l0 15.7c0,1.21 -0.5,2.11 -1.54,2.46 -0.17,0.08 -0.34,0.11 -0.53,0.11l-0.01 0c-0.82,0 -1.39,-0.52 -1.76,-1.27 -0.14,0.54 -0.49,0.95 -1.03,1.13 -0.13,0.06 -0.26,0.08 -0.4,0.08l-0.01 0c-0.55,0 -0.95,-0.33 -1.22,-0.81 -0.05,0.09 -0.11,0.17 -0.18,0.25 -0.18,0.2 -0.41,0.36 -0.7,0.46 -0.13,0.05 -0.24,0.07 -0.38,0.07l-0.01 0c-0.66,0 -1.12,-0.46 -1.37,-1.12 -0.08,-0.2 -0.09,-0.38 -0.09,-0.59l0 -2.81 0.04 -0.17 1.64 -2.52c-0.17,0.05 -0.35,0.08 -0.52,0.11l-0.01 0 -0.03 0 -0.02 0c-1.04,0 -1.82,-0.93 -2.33,-1.86l-1.86 -2.61 -0.05 -0.17c-0.94,2.06 -2.53,3.19 -4.8,3.19l-2.84 0 -0.28 -0.31 0 -3.78 0.28 -0.31 3.1 0c0.1,0 0.27,-0.01 0.38,-0.05 0.61,-0.32 0.89,-0.81 0.93,-1.54l0 -0.14c0,0 0,-0.01 0,-0.01l0 -0.14c0,-0.08 0,-0.17 0,-0.25l-0.01 -0.23 0.01 0c-0.05,-0.71 -0.33,-1.19 -0.93,-1.5 -0.11,-0.04 -0.27,-0.04 -0.38,-0.04l-4.03 0 0 12.97z"/>
  <path class="fil1" d="M1.93 20.68l0.03 0c0.16,0 0.28,-0.03 0.36,-0.07 0.03,0 0.1,-0.02 0.14,-0.04 0.08,-0.03 0.19,-0.08 0.27,-0.13 0.49,-0.32 0.72,-0.87 0.72,-1.66l0 -5.67 0 -1.61 0 -3.3 0 -0.8 0 -3.53 4.51 0c0.21,0 0.41,0.02 0.56,0.08 0.82,0.42 1.23,1.14 1.23,2.19l0 0.15c0,0.09 0,0.18 0,0.26l2.96 0c0,-0.13 0,-0.25 0,-0.39 -0.01,-0.58 -0.11,-1.11 -0.21,-1.55 -0.78,-2.72 -2.4,-4.07 -4.79,-4.07l-6.18 0c-0.48,0 -0.8,0.32 -0.99,1.02 -0.02,0.05 -0.02,0.09 -0.02,0.16l-0.02 1.03 0 6.93c-0.02,0.07 -0.02,0.16 -0.02,0.23l0 8.96c0,0.12 0.02,0.3 0.04,0.5 0.01,0.07 0.03,0.13 0.05,0.19 0.14,0.3 0.29,0.54 0.47,0.73 0.25,0.26 0.54,0.39 0.89,0.39z"/>
  <path class="fil2 str0" d="M20.18 3.8c-0.9,1.28 -2.04,2.92 -3.44,4.92l-3.76 -5.37 0 6.07 1.82 2.57c0.6,1.09 1.26,1.63 1.94,1.63 0.55,-0.08 0.92,-0.24 1.12,-0.48 0.43,-0.57 1.21,-1.65 2.32,-3.25l0 -6.09z"/>
  <path class="fil3 str1" d="M22.79 20.81l0.01 0c0.18,0 0.29,-0.04 0.38,-0.08 0.81,-0.26 1.21,-0.92 1.21,-1.95l0 -15.7c0,-0.21 -0.03,-0.41 -0.05,-0.6 -0.02,-0.03 -0.02,-0.07 -0.03,-0.11 -0.29,-0.85 -0.8,-1.28 -1.51,-1.28l-0.03 0c-0.32,0 -0.65,0.1 -0.97,0.35 -0.01,0 -0.04,0.03 -0.06,0.05 -0.13,0.18 -0.72,1.03 -1.74,2.56l0 6.08c0.38,-0.58 0.8,-1.22 1.26,-1.91l0 10.77c0,0.15 0.01,0.35 0.08,0.59 0.33,0.8 0.81,1.23 1.45,1.23z"/>
  <path class="fil4" d="M5.06 8.85l2.9 0c0.21,0 0.41,-0.02 0.56,-0.08 0.82,-0.42 1.23,-1.14 1.23,-2.2l0 -0.14c0,-0.1 0,-0.18 0,-0.26l2.95 0c0,0.12 0,0.25 0,0.38 -0.01,0.59 -0.11,1.11 -0.2,1.55 -0.78,2.72 -2.4,4.07 -4.8,4.07l-2.64 0 0 -3.32z"/>
  <path class="fil2 str1" d="M19.59 20.75l0.01 0c0.11,0 0.19,-0.02 0.24,-0.05 0.52,-0.17 0.79,-0.6 0.79,-1.26l0 -9.31 -2.02 3.11 0 6.33c0,0.1 0,0.23 0.05,0.39 0.21,0.51 0.52,0.79 0.93,0.79z"/>
  <path class="fil5 str1" d="M17.1 20.72l0.01 0c0.11,0 0.18,-0.03 0.24,-0.05 0.52,-0.17 0.78,-0.59 0.78,-1.25l0 -5.71 -2.01 3.11 0 2.73c0,0.1 -0.01,0.23 0.05,0.38 0.2,0.52 0.52,0.79 0.93,0.79z"/>
  <path class="fil2 str1" d="M17.1 20.72l0.01 0c0.11,0 0.18,-0.03 0.24,-0.05 0.52,-0.17 0.78,-0.59 0.78,-1.25l0 -5.71 -2.01 3.11 0 2.73c0,0.1 -0.01,0.23 0.05,0.38 0.2,0.52 0.52,0.79 0.93,0.79z"/>
  <path class="fil4 str1" d="M14.63 19.43l0 -0.03c0,-0.16 -0.03,-0.28 -0.05,-0.35 0,-0.04 -0.02,-0.1 -0.03,-0.15 -0.02,-0.08 -0.06,-0.19 -0.09,-0.26 -0.23,-0.49 -0.61,-0.72 -1.17,-0.72l-3.98 0 -1.13 0 -1.42 0 -0.9 0 -0.56 0 -2.48 0 -2.34 0 0 1.91c0,0.47 0.23,0.79 0.71,0.98 0.04,0.02 0.07,0.02 0.12,0.02l0.72 0.02 4.87 0c0.05,0.02 0.11,0.02 0.16,0.02l6.29 0c0.09,0 0.21,-0.02 0.36,-0.04 0.05,-0.01 0.09,-0.03 0.13,-0.05 0.21,-0.14 0.38,-0.29 0.51,-0.47 0.18,-0.24 0.28,-0.54 0.28,-0.88z"/>
  <path class="fil6" d="M32.74 16.83c-0.09,0 -0.19,0 -0.28,0l0 0 -0.01 0 -0.28 -0.05c-0.96,-0.16 -1.79,-0.61 -2.47,-1.38 -0.83,-0.92 -1.24,-2.06 -1.31,-3.37l0 0 0 -0.01 0 0c0,-0.05 0,-0.1 0,-0.14 0,-0.05 0,-0.09 0,-0.14l0 -0.01 0 0 0 -0.01c0.07,-1.3 0.48,-2.45 1.31,-3.37 0.68,-0.76 1.51,-1.21 2.46,-1.36l0.26 -0.05 0.02 0c0.02,0 0.03,-0.01 0.05,-0.01l0.25 0c0.24,0 0.48,0 0.72,0.02l0.01 0 0.01 0 0 0c0.33,0.06 0.65,0.15 0.96,0.28l0 0c0.39,0.16 0.76,0.37 1.09,0.65 0.19,0.15 0.36,0.31 0.53,0.5 0.38,0.4 0.66,0.88 0.88,1.42l0 0 0 0.01 0 0c0.02,0.06 0.04,0.12 0.04,0.18 0.01,0.34 -0.07,0.64 -0.28,0.88 -0.29,0.32 -0.68,0.35 -1.05,0.19 -0.02,0 -0.04,-0.01 -0.06,-0.02l-0.01 -0.01 -0.03 -0.01 -0.01 -0.02c-0.02,-0.02 -0.05,-0.04 -0.08,-0.05l-0.01 -0.01 -0.02 -0.01 -0.01 -0.01c-0.05,-0.05 -0.1,-0.11 -0.14,-0.18l-0.01 0 0 0 0 -0.01c-0.1,-0.19 -0.2,-0.39 -0.33,-0.57l-0.01 -0.01 -0.01 -0.01 0 0c-0.03,-0.03 -0.05,-0.05 -0.06,-0.09 -0.03,-0.03 -0.06,-0.07 -0.09,-0.1l-0.12 -0.14c-0.26,-0.28 -0.57,-0.48 -0.91,-0.62 -0.51,-0.16 -1.06,-0.23 -1.57,-0.07l-0.24 0.08c-0.33,0.14 -0.61,0.37 -0.87,0.64l-0.01 0.02 -0.01 0.01 0 0c-0.34,0.39 -0.57,0.82 -0.69,1.35 -0.03,0.21 -0.06,0.44 -0.06,0.66 0,0.22 0.03,0.44 0.06,0.65 0.12,0.52 0.34,0.98 0.69,1.35l0.01 0.02c0.26,0.29 0.54,0.51 0.88,0.65l0.01 0 0 0c0.07,0.04 0.14,0.06 0.22,0.08l0 0 0 0 0.01 0c0.51,0.16 1.06,0.11 1.57,-0.06 0.34,-0.14 0.65,-0.34 0.91,-0.63l0.12 -0.14 0.01 0c0.02,-0.03 0.05,-0.06 0.07,-0.1 0.03,-0.03 0.05,-0.07 0.08,-0.09l0 -0.01c0.13,-0.18 0.25,-0.39 0.35,-0.59 0.04,-0.07 0.09,-0.13 0.15,-0.18l0.11 -0.08c0.02,-0.02 0.06,-0.04 0.09,-0.06l0 0 0.01 -0.01 0.01 0c0.37,-0.15 0.76,-0.11 1.05,0.21 0.22,0.24 0.29,0.55 0.28,0.88 0,0.07 -0.02,0.11 -0.03,0.17l-0.01 0.01 0 0.01 0 0c-0.22,0.53 -0.51,1.02 -0.88,1.43l0 0 0 0c-0.17,0.18 -0.34,0.35 -0.53,0.49 -0.33,0.29 -0.7,0.49 -1.09,0.65l0 0c-0.31,0.13 -0.63,0.22 -0.96,0.28l-0.01 0 0 0 0 0c-0.24,0.02 -0.49,0.04 -0.73,0.02zm16.36 -2.98l-0.01 0.04 -0.01 0.02c-0.22,0.54 -0.51,1.05 -0.89,1.47l-0.01 0c-0.17,0.18 -0.34,0.35 -0.53,0.49 -0.17,0.14 -0.34,0.26 -0.52,0.37 -0.21,0.13 -0.44,0.24 -0.68,0.33 -0.28,0.1 -0.56,0.18 -0.85,0.23l-0.01 0c-0.2,0.02 -0.41,0.02 -0.61,0.02 -0.2,0 -0.4,0 -0.6,-0.02l-0.01 0 0 0 0 0c-0.29,-0.04 -0.58,-0.12 -0.85,-0.22 -0.24,-0.09 -0.47,-0.2 -0.69,-0.33l0 0 -0.01 -0.01 0 0c-0.18,-0.11 -0.35,-0.22 -0.51,-0.36 -0.19,-0.14 -0.37,-0.32 -0.53,-0.5l0 0 -0.01 0c-0.36,-0.41 -0.64,-0.88 -0.86,-1.4l0 0 -0.01 -0.01 0 -0.01c-0.01,-0.04 -0.03,-0.08 -0.03,-0.13 -0.21,-0.57 -0.33,-1.18 -0.37,-1.8l0 0 0 -0.01 0 0c0,-0.05 0,-0.1 0.01,-0.15 0,-0.04 -0.01,-0.08 -0.01,-0.13l0 -0.01 0 0 0 -0.01c0.04,-0.62 0.16,-1.22 0.37,-1.8l0 0 0.01 -0.04 0 -0.02c0.22,-0.56 0.52,-1.05 0.89,-1.48 0.17,-0.19 0.35,-0.35 0.54,-0.5 0.16,-0.14 0.33,-0.27 0.52,-0.37 0.22,-0.13 0.44,-0.24 0.68,-0.33 0.28,-0.11 0.56,-0.18 0.85,-0.23l0.01 0 0 0 0.01 0c0.2,-0.02 0.4,-0.03 0.6,-0.03 0.2,0 0.4,0.01 0.61,0.03l0 0 0 0 0.01 0c0.3,0.05 0.6,0.13 0.89,0.25 0.18,0.06 0.34,0.14 0.5,0.24 0.24,0.11 0.46,0.26 0.66,0.44 0.19,0.15 0.37,0.31 0.54,0.49 0.36,0.41 0.65,0.88 0.87,1.4l0 0.01 0.01 0.03 0 0.01c0.01,0.04 0.02,0.05 0.03,0.09 0.21,0.58 0.33,1.19 0.36,1.81l0 0 0 0.01 0 0.29 0 0.01 0 0c-0.03,0.62 -0.15,1.23 -0.36,1.81l0 0.01zm5.07 2.95c-0.07,0.03 -0.15,0.05 -0.23,0.05l-0.02 0c-0.43,0 -0.71,-0.3 -0.87,-0.72l0 -0.01 -0.01 -0.01 0 0c-0.03,-0.11 -0.06,-0.23 -0.06,-0.35l0 -7.81c0,-0.29 0.1,-0.54 0.29,-0.73 0.1,-0.11 0.23,-0.19 0.36,-0.26l0 0 0.01 0 0 0c0.04,-0.02 0.07,-0.03 0.11,-0.03 0.06,-0.02 0.11,-0.03 0.17,-0.03l0.06 0 0 0 0.01 0c0.29,0.03 0.54,0.16 0.7,0.43 0.12,0.12 0.21,0.26 0.31,0.4l4.2 5.25 0 -5.03c0,-0.5 0.28,-0.81 0.67,-0.99 0.08,-0.04 0.19,-0.05 0.28,-0.06l0 0 0 0 0.01 0c0.44,0 0.74,0.32 0.91,0.76l0 0.01 0 0.01 0.01 0.01c0.01,0.05 0.02,0.08 0.02,0.13l0.01 0.13 0 0.01 0 7.82c0,0.5 -0.28,0.84 -0.69,1.01 -0.03,0.02 -0.06,0.03 -0.1,0.03l-0.12 0.02 -0.01 0c-0.02,0.01 -0.04,0.01 -0.06,0.01l0 0 0 0 -0.01 0c-0.4,-0.03 -0.71,-0.38 -0.94,-0.71 -1.11,-1.39 -2.22,-2.78 -3.33,-4.18 -0.3,-0.37 -0.6,-0.74 -0.89,-1.12 -0.02,-0.02 -0.04,-0.05 -0.06,-0.07l0 4.89c0,0.57 -0.23,0.98 -0.73,1.14zm13.38 -0.28c-0.12,-0.13 -0.2,-0.3 -0.24,-0.48l0 -0.01 0 0 -0.01 -0.03 0 -0.01 0 0c-0.01,-0.06 -0.02,-0.11 -0.02,-0.17l0 -6.89 -1.75 0c-0.46,0 -0.74,-0.28 -0.87,-0.77l-0.01 -0.01 0 -0.02 0 0c-0.01,-0.07 -0.02,-0.12 -0.02,-0.19 0,-0.47 0.27,-0.76 0.65,-0.91 0.03,-0.03 0.07,-0.03 0.11,-0.04 0.05,0 0.1,-0.01 0.14,-0.01l5.41 0c0.04,0 0.08,0.01 0.12,0.01l0.01 0 0.01 0 0.01 0c0.05,0.01 0.08,0.02 0.11,0.04 0.38,0.15 0.64,0.44 0.64,0.91 0,0.07 -0.01,0.12 -0.02,0.19l0 0 0 0.02 0 0.01c-0.13,0.48 -0.42,0.77 -0.88,0.77l-1.75 0 0 6.89c0,0.06 -0.01,0.11 -0.02,0.17l0 0.01 0 0.03 -0.01 0.02c-0.04,0.18 -0.12,0.35 -0.24,0.47 -0.18,0.22 -0.4,0.33 -0.67,0.33l-0.03 0c-0.26,0 -0.49,-0.11 -0.67,-0.33zm14 -0.12c-0.04,-0.07 -0.08,-0.15 -0.11,-0.22 -0.07,-0.15 -0.13,-0.29 -0.2,-0.43 -0.19,-0.42 -0.38,-0.85 -0.56,-1.28 -0.08,0.01 -0.16,0.02 -0.25,0.02l-3.14 0c-0.04,0 -0.09,0 -0.13,-0.01 -0.19,0.43 -0.38,0.86 -0.57,1.28 -0.1,0.21 -0.2,0.43 -0.3,0.64 -0.02,0.04 -0.04,0.07 -0.08,0.1 -0.19,0.22 -0.42,0.35 -0.69,0.35 -0.43,0 -0.72,-0.28 -0.88,-0.72l-0.01 0 0 -0.01c-0.01,-0.03 -0.02,-0.06 -0.02,-0.09l-0.03 -0.13c-0.02,-0.07 -0.02,-0.14 0,-0.21 0.03,-0.16 0.1,-0.35 0.16,-0.49 0.11,-0.29 0.23,-0.57 0.35,-0.84 0.6,-1.36 1.19,-2.73 1.78,-4.09l0 -0.01c0.33,-0.72 0.63,-1.46 0.95,-2.18 0.17,-0.57 0.48,-1.17 1.09,-1.17l0.02 0c0.6,0 0.91,0.6 1.08,1.17 0.43,0.98 0.85,1.96 1.27,2.95 0.11,0.25 0.22,0.51 0.32,0.77 0.03,0.07 0.09,0.21 0.12,0.31 0,0.01 0,0.03 0.01,0.04 0.33,0.74 0.67,1.47 1.01,2.2l0 0.01c0.13,0.27 0.25,0.55 0.36,0.84 0.06,0.14 0.13,0.33 0.15,0.49 0.02,0.07 0.02,0.14 0,0.21l-0.02 0.13c0,0.03 -0.01,0.06 -0.03,0.09l0 0 0 0.01 0 0.01c-0.17,0.42 -0.46,0.71 -0.89,0.71 -0.27,0 -0.5,-0.13 -0.69,-0.35 -0.03,-0.03 -0.05,-0.05 -0.07,-0.1zm11.13 -4.58c0.42,0.58 0.68,1.24 0.68,2.01l0 0.16c0,0.97 -0.41,1.75 -1.09,2.33l0 0 0 0 0 0c-0.51,0.4 -1.12,0.53 -1.73,0.53l-2.81 0c-0.42,0 -0.71,-0.3 -0.87,-0.72l0 0 -0.01 -0.01 0 -0.01c-0.03,-0.11 -0.06,-0.23 -0.06,-0.35l0 -7.83c0,-0.46 0.27,-0.77 0.61,-0.96 0.03,-0.02 0.07,-0.03 0.1,-0.04 0.11,-0.04 0.22,-0.05 0.33,-0.05l2.58 0c1.35,0 2.24,0.75 2.68,2.18l0 0 0 0.01 0.01 0.01c0.06,0.29 0.12,0.61 0.12,0.92 0,0.67 -0.21,1.28 -0.54,1.82zm6.05 -4.19c0.03,0.04 0.05,0.09 0.05,0.14 0.01,0.11 0.02,0.21 0.02,0.31l0 7.58c0,0.57 -0.23,0.98 -0.72,1.14 -0.07,0.04 -0.16,0.05 -0.24,0.05l-0.02 0c-0.41,0 -0.69,-0.27 -0.86,-0.67 -0.02,-0.04 -0.03,-0.07 -0.04,-0.12 -0.02,-0.1 -0.04,-0.19 -0.04,-0.3l0 -7.77c0,-0.53 0.27,-0.87 0.7,-1.04l0 -0.01 0.01 0 0.01 0c0.07,-0.02 0.14,-0.04 0.22,-0.04l0.02 0c0.44,0 0.73,0.28 0.89,0.73zm9.81 8.31c0,0.05 -0.01,0.09 -0.02,0.14 -0.17,0.5 -0.52,0.77 -1,0.77l-4.26 0c-0.29,0 -0.53,-0.14 -0.71,-0.4 -0.15,-0.19 -0.23,-0.41 -0.23,-0.67l0 -7.72c0,-0.55 0.25,-0.92 0.7,-1.11l0.01 -0.01 0.01 0 0.01 0c0.03,-0.01 0.05,-0.01 0.08,-0.01 0.06,-0.01 0.12,-0.02 0.17,-0.02 0.46,0 0.75,0.32 0.89,0.79 0.04,0.11 0.05,0.23 0.05,0.34l0 6.7 3.29 0c0.1,0 0.2,0 0.3,0.03 0.42,0.15 0.73,0.48 0.73,0.99 0,0.06 -0.01,0.12 -0.02,0.18zm3.58 0.12c-0.03,-0.1 -0.04,-0.19 -0.04,-0.3l0 -7.77c0,-0.53 0.27,-0.87 0.7,-1.04l0 -0.01 0.01 0 0.01 0c0.07,-0.02 0.14,-0.04 0.22,-0.04l0.02 0c0.44,0 0.73,0.28 0.89,0.73 0.03,0.04 0.04,0.09 0.05,0.14 0.01,0.11 0.01,0.21 0.01,0.31l0 7.58c0,0.57 -0.22,0.98 -0.71,1.14 -0.07,0.04 -0.16,0.05 -0.24,0.05l-0.02 0c-0.41,0 -0.69,-0.27 -0.86,-0.67 -0.02,-0.04 -0.03,-0.07 -0.04,-0.12zm5.77 0.56c-0.12,-0.11 -0.21,-0.24 -0.27,-0.4l-0.01 -0.01 0 -0.01 -0.02 -0.07c-0.03,-0.07 -0.04,-0.13 -0.05,-0.21 -0.01,-0.05 -0.02,-0.1 -0.02,-0.16l0 -7.77c0,-0.51 0.26,-0.84 0.66,-1.04l0.01 0 0.02 -0.01 0.07 -0.01c0.06,-0.01 0.12,-0.02 0.18,-0.02l2.4 0c2.12,0 3.62,1.07 4.32,3.35l0 0 0 0.01 0 0c0.13,0.51 0.21,1.05 0.21,1.57 0,1.42 -0.45,2.63 -1.31,3.66l0 0c-0.87,0.98 -2.03,1.35 -3.23,1.35l-2.39 0c-0.21,0 -0.41,-0.08 -0.57,-0.23zm17.54 -0.22c-0.04,-0.07 -0.07,-0.15 -0.11,-0.22 -0.06,-0.15 -0.13,-0.29 -0.19,-0.43 -0.19,-0.42 -0.38,-0.85 -0.57,-1.28 -0.08,0.01 -0.16,0.02 -0.24,0.02l-3.15 0c-0.04,0 -0.08,0 -0.13,-0.01 -0.19,0.43 -0.38,0.86 -0.57,1.28 -0.1,0.21 -0.19,0.43 -0.3,0.64 -0.01,0.04 -0.04,0.07 -0.07,0.1 -0.19,0.22 -0.42,0.35 -0.69,0.35 -0.44,0 -0.72,-0.28 -0.89,-0.72l0 0 0 -0.01c-0.02,-0.03 -0.03,-0.06 -0.03,-0.09l-0.02 -0.13c-0.02,-0.06 -0.02,-0.14 0,-0.21 0.02,-0.16 0.1,-0.35 0.15,-0.49 0.11,-0.29 0.24,-0.57 0.36,-0.84 0.6,-1.36 1.18,-2.73 1.77,-4.09l0.01 -0.01c0.32,-0.72 0.62,-1.46 0.95,-2.18 0.17,-0.57 0.48,-1.17 1.08,-1.17l0.02 0c0.6,0 0.91,0.6 1.09,1.17 0.42,0.98 0.85,1.96 1.27,2.95 0.1,0.25 0.21,0.51 0.32,0.77 0.02,0.07 0.08,0.21 0.11,0.31 0,0.01 0.01,0.03 0.01,0.04 0.34,0.74 0.67,1.47 1.01,2.2l0.01 0.01c0.12,0.27 0.24,0.55 0.35,0.84 0.06,0.14 0.13,0.33 0.16,0.49 0.02,0.07 0.01,0.14 0,0.21l-0.03 0.13c0,0.03 -0.01,0.06 -0.02,0.09l0 0 -0.01 0.01 0 0.01c-0.17,0.42 -0.45,0.71 -0.88,0.71 -0.27,0 -0.5,-0.13 -0.69,-0.35 -0.04,-0.03 -0.06,-0.05 -0.08,-0.1zm5.61 0.22c-0.12,-0.11 -0.21,-0.24 -0.27,-0.4l0 -0.01 -0.01 -0.01 -0.02 -0.07c-0.03,-0.07 -0.04,-0.13 -0.05,-0.21 -0.01,-0.05 -0.01,-0.1 -0.01,-0.16l0 -7.77c0,-0.51 0.25,-0.84 0.66,-1.04l0.01 0 0.02 -0.01 0.07 -0.01c0.05,-0.01 0.11,-0.02 0.17,-0.02l2.41 0c2.12,0 3.61,1.07 4.31,3.35l0.01 0 0 0.01 0 0c0.12,0.51 0.21,1.05 0.21,1.57 0,1.42 -0.45,2.63 -1.32,3.66l0 0c-0.87,0.98 -2.02,1.35 -3.23,1.35l-2.39 0c-0.21,0 -0.4,-0.08 -0.57,-0.23zm-98.57 -5.41c-0.03,0.22 -0.06,0.44 -0.06,0.66 0,0.22 0.03,0.44 0.06,0.66 0.12,0.52 0.34,0.97 0.69,1.35l0.01 0.01c0.17,0.18 0.34,0.34 0.54,0.47 0.13,0.07 0.26,0.14 0.39,0.2 0.27,0.08 0.56,0.15 0.85,0.16 0.3,0 0.62,-0.08 0.92,-0.16 0.13,-0.05 0.26,-0.12 0.38,-0.19 0.19,-0.12 0.36,-0.28 0.51,-0.44 0.03,-0.03 0.05,-0.06 0.08,-0.08 0.33,-0.37 0.54,-0.81 0.66,-1.32 0.04,-0.22 0.05,-0.43 0.05,-0.65 0,-0.22 -0.01,-0.45 -0.05,-0.66 -0.12,-0.53 -0.35,-0.96 -0.69,-1.34l0 -0.01 0 0 -0.02 -0.02c-0.16,-0.17 -0.35,-0.33 -0.54,-0.46 -0.13,-0.07 -0.25,-0.14 -0.39,-0.2 -0.29,-0.09 -0.61,-0.16 -0.92,-0.16 -0.28,0.01 -0.57,0.07 -0.84,0.16 -0.13,0.06 -0.26,0.12 -0.38,0.2 -0.2,0.12 -0.37,0.29 -0.54,0.45l-0.01 0.02 -0.01 0.01 0 0c-0.34,0.38 -0.57,0.82 -0.69,1.34zm35.6 1.16l1.69 0c-0.06,-0.15 -0.13,-0.3 -0.19,-0.45 -0.22,-0.51 -0.43,-1.01 -0.65,-1.51 -0.22,0.5 -0.44,1 -0.66,1.51 -0.06,0.15 -0.12,0.3 -0.19,0.45zm12.73 -3.33c-0.08,-0.02 -0.16,-0.03 -0.24,-0.03l-1.85 0 0 1.81 1.7 0c0.23,0 0.63,-0.04 0.76,-0.3 0.06,-0.13 0.13,-0.29 0.13,-0.43l0 -0.17c0,-0.42 -0.17,-0.7 -0.5,-0.88zm-2.09 5.68l2.04 0c0.4,0 0.62,-0.19 0.69,-0.64l0 0 0 -0.01 0 0c0.01,-0.05 0.02,-0.1 0.02,-0.16 0,-0.44 -0.16,-0.76 -0.53,-0.94 -0.08,-0.04 -0.24,-0.04 -0.33,-0.04l-1.89 0 0 1.79zm30.73 0.02l1.65 0c1.13,0 1.84,-0.67 2.25,-1.83 0.09,-0.32 0.14,-0.67 0.14,-1.01l0 -0.11c0,-1.14 -0.42,-1.99 -1.32,-2.53 -0.33,-0.16 -0.69,-0.23 -1.05,-0.23l-1.67 0 0 5.71zm12.52 -2.37l1.69 0c-0.07,-0.15 -0.13,-0.3 -0.19,-0.45 -0.22,-0.51 -0.44,-1.01 -0.66,-1.51 -0.22,0.5 -0.43,1 -0.65,1.51 -0.06,0.15 -0.13,0.3 -0.19,0.45zm10.63 2.37l1.65 0c1.13,0 1.84,-0.67 2.25,-1.83 0.09,-0.32 0.14,-0.67 0.14,-1.01l0 -0.11c0,-1.14 -0.41,-1.99 -1.31,-2.53 -0.34,-0.16 -0.69,-0.23 -1.06,-0.23l-1.67 0 0 5.71z"/>
  <path class="fil7" d="M32.75 16.62c0.23,0.02 0.46,0 0.71,-0.02 0.31,-0.06 0.63,-0.15 0.92,-0.26 0.37,-0.17 0.72,-0.35 1.03,-0.63 0.2,-0.14 0.36,-0.3 0.53,-0.48 0.35,-0.37 0.62,-0.85 0.83,-1.36 0.01,-0.04 0.01,-0.06 0.01,-0.1 0.03,-0.3 -0.04,-0.54 -0.21,-0.73 -0.22,-0.24 -0.51,-0.31 -0.86,-0.16 -0.02,0.01 -0.05,0.02 -0.06,0.04l-0.11 0.09c-0.05,0.02 -0.07,0.07 -0.09,0.11 -0.14,0.26 -0.26,0.46 -0.38,0.62l-0.01 0.03c-0.02,0.01 -0.03,0.02 -0.05,0.05 -0.04,0.05 -0.07,0.1 -0.11,0.12l-0.12 0.15c-0.26,0.29 -0.59,0.52 -0.99,0.68 -0.61,0.2 -1.17,0.21 -1.67,0.06 -0.09,-0.02 -0.17,-0.05 -0.25,-0.08 -0.35,-0.14 -0.66,-0.38 -0.95,-0.69l-0.01 -0.03c-0.37,-0.41 -0.61,-0.89 -0.74,-1.45 -0.03,-0.25 -0.07,-0.48 -0.07,-0.7 0,-0.23 0.04,-0.47 0.07,-0.72 0.13,-0.55 0.37,-1.02 0.74,-1.44l0.01 -0.02c0.29,-0.31 0.6,-0.55 0.95,-0.7l0.25 -0.08c0.5,-0.16 1.06,-0.14 1.67,0.06 0.4,0.17 0.73,0.39 0.99,0.68l0.12 0.14c0.04,0.04 0.08,0.09 0.12,0.15 0.01,0.01 0.02,0.04 0.03,0.04l0.02 0.02c0.12,0.15 0.24,0.36 0.37,0.62 0.02,0.05 0.06,0.08 0.11,0.13 0.03,0.02 0.07,0.04 0.1,0.08 0.02,0 0.04,0.01 0.06,0.02 0.35,0.15 0.64,0.09 0.86,-0.15 0.17,-0.17 0.24,-0.42 0.21,-0.71 0,-0.05 0,-0.08 -0.01,-0.11 -0.21,-0.53 -0.48,-0.98 -0.83,-1.37 -0.17,-0.17 -0.33,-0.32 -0.53,-0.47 -0.31,-0.27 -0.66,-0.47 -1.03,-0.63 -0.29,-0.11 -0.61,-0.2 -0.92,-0.26 -0.25,-0.02 -0.48,-0.03 -0.71,-0.02l-0.26 0c-0.01,0 -0.02,0 -0.04,0l-0.25 0.05c-0.93,0.15 -1.72,0.59 -2.37,1.31 -0.76,0.85 -1.19,1.92 -1.26,3.24 0,0.04 0,0.09 0.01,0.14 -0.01,0.04 -0.01,0.09 -0.01,0.14 0.07,1.31 0.5,2.39 1.26,3.23 0.65,0.74 1.44,1.17 2.37,1.32l0.27 0.04c0.09,0.01 0.19,0.01 0.28,0.01z"/>
  <path class="fil7" d="M44.98 16.61c0.2,0 0.4,0 0.59,-0.02 0.29,-0.05 0.57,-0.13 0.83,-0.23 0.23,-0.07 0.44,-0.19 0.64,-0.31 0.19,-0.1 0.33,-0.21 0.5,-0.35 0.18,-0.14 0.35,-0.3 0.51,-0.48 0.37,-0.4 0.65,-0.87 0.86,-1.4l0 -0.04c0,0 0,-0.01 0.02,-0.02 0.19,-0.53 0.31,-1.11 0.35,-1.74l0 -0.14 0 -0.15c-0.04,-0.64 -0.16,-1.24 -0.37,-1.77l0 -0.02c0,0 -0.01,-0.02 -0.02,-0.08 -0.21,-0.5 -0.49,-0.96 -0.84,-1.34 -0.16,-0.17 -0.33,-0.34 -0.51,-0.47 -0.19,-0.18 -0.4,-0.32 -0.63,-0.42 -0.15,-0.1 -0.3,-0.17 -0.48,-0.22 -0.27,-0.13 -0.55,-0.2 -0.86,-0.25 -0.19,-0.02 -0.39,-0.03 -0.59,-0.03 -0.19,0 -0.39,0.01 -0.59,0.03 -0.28,0.05 -0.56,0.12 -0.82,0.22 -0.23,0.08 -0.44,0.19 -0.66,0.31 -0.16,0.1 -0.33,0.22 -0.49,0.36 -0.18,0.15 -0.35,0.3 -0.52,0.47 -0.35,0.4 -0.63,0.88 -0.85,1.42l0 0.02c-0.19,0.54 -0.31,1.13 -0.36,1.78 0,0.04 0,0.09 0.01,0.14 -0.01,0.04 -0.01,0.09 -0.01,0.14 0.05,0.65 0.17,1.24 0.36,1.76l0 0.03c0,0 0.01,0.02 0.03,0.08 0.21,0.51 0.49,0.96 0.82,1.34 0.17,0.17 0.34,0.34 0.52,0.48 0.16,0.14 0.33,0.24 0.49,0.35 0.22,0.13 0.43,0.24 0.66,0.31 0.26,0.1 0.54,0.18 0.82,0.22 0.2,0.02 0.4,0.02 0.59,0.02zm-0.04 -1.68c-0.28,-0.01 -0.59,-0.07 -0.9,-0.17 -0.14,-0.06 -0.28,-0.14 -0.42,-0.21 -0.2,-0.13 -0.39,-0.3 -0.57,-0.51l-0.03 -0.02c-0.36,-0.4 -0.61,-0.89 -0.73,-1.45 -0.04,-0.24 -0.07,-0.47 -0.07,-0.69 0,-0.23 0.03,-0.47 0.07,-0.72 0.12,-0.55 0.37,-1.02 0.73,-1.44l0.03 -0.02c0.18,-0.19 0.37,-0.36 0.57,-0.5 0.14,-0.08 0.28,-0.15 0.42,-0.22 0.31,-0.1 0.62,-0.15 0.9,-0.16 0.3,0 0.63,0.06 0.98,0.16 0.15,0.07 0.29,0.14 0.42,0.22 0.2,0.14 0.41,0.31 0.58,0.5l0.02 0.02c0.38,0.42 0.61,0.89 0.74,1.44 0.04,0.25 0.06,0.49 0.06,0.72 0,0.22 -0.02,0.45 -0.06,0.7 -0.13,0.56 -0.36,1.04 -0.74,1.45l-0.01 0c0,0 -0.02,0.03 -0.03,0.04 -0.17,0.19 -0.38,0.36 -0.56,0.49 -0.13,0.06 -0.27,0.15 -0.42,0.2 -0.35,0.1 -0.68,0.17 -0.98,0.17z"/>
  <path class="fil7" d="M53.92 16.64l0.02 0c0.08,0 0.14,-0.03 0.18,-0.04 0.39,-0.13 0.59,-0.44 0.59,-0.94l0 -5.42 0.02 0c0.15,0.18 1.68,2.11 4.6,5.76 0.27,0.41 0.53,0.61 0.8,0.64 0.02,0 0.04,-0.02 0.05,-0.02l0.12 -0.01c0.03,0 0.04,-0.01 0.06,-0.02 0.36,-0.15 0.57,-0.44 0.57,-0.82l0 -7.8 -0.01 -0.14c0,-0.02 -0.02,-0.06 -0.03,-0.09 -0.16,-0.42 -0.42,-0.62 -0.73,-0.62 -0.1,0 -0.18,0.02 -0.22,0.04 -0.36,0.16 -0.55,0.42 -0.55,0.78l0 5.57 -0.03 0 -4.5 -5.64c-0.12,-0.16 -0.21,-0.29 -0.31,-0.4 -0.13,-0.23 -0.33,-0.34 -0.58,-0.35l-0.05 0c-0.04,0 -0.07,0 -0.13,0.01 -0.03,0.01 -0.05,0.01 -0.09,0.03 -0.12,0.06 -0.22,0.12 -0.29,0.22 -0.16,0.14 -0.24,0.33 -0.24,0.56l0 7.82c0,0.08 0.02,0.16 0.06,0.28 0.14,0.4 0.38,0.6 0.69,0.6z"/>
  <path class="fil7" d="M68.23 16.64l0.03 0c0.22,0 0.39,-0.09 0.53,-0.27 0.09,-0.1 0.16,-0.22 0.19,-0.38l0 -0.03c0.02,-0.06 0.03,-0.1 0.03,-0.15l0 -7.09 1.93 0c0.36,0 0.59,-0.2 0.7,-0.62 0.01,-0.05 0.02,-0.1 0.02,-0.16 0,-0.33 -0.18,-0.58 -0.55,-0.72 -0.01,-0.01 -0.02,-0.01 -0.05,-0.03 -0.04,0 -0.08,0 -0.12,0l-5.41 0c-0.03,0 -0.08,0 -0.12,0.02 -0.02,0 -0.04,0 -0.05,0.01 -0.36,0.14 -0.54,0.39 -0.54,0.72 0,0.06 0.01,0.11 0.02,0.16 0.11,0.42 0.34,0.62 0.69,0.62l1.94 0 0 7.09c0,0.05 0.01,0.09 0.02,0.15l0 0.03c0.03,0.16 0.1,0.28 0.19,0.38 0.15,0.18 0.33,0.27 0.55,0.27z"/>
  <path class="fil7" d="M75.53 16.64c0.19,0 0.38,-0.09 0.55,-0.29 0.02,-0.01 0.04,-0.03 0.05,-0.04 0.08,-0.17 0.39,-0.86 0.93,-2.05 0.09,0.01 0.17,0.02 0.23,0.02l3.14 0c0.14,0 0.25,-0.02 0.35,-0.05 0.53,1.2 0.84,1.89 0.94,2.08 0,0.01 0.02,0.03 0.04,0.04 0.17,0.2 0.36,0.29 0.55,0.29 0.32,0 0.56,-0.19 0.71,-0.59 0.02,-0.01 0.03,-0.04 0.03,-0.05l0.02 -0.15c0.01,-0.04 0.01,-0.08 0,-0.11 -0.02,-0.18 -0.19,-0.61 -0.5,-1.29 -0.37,-0.81 -0.71,-1.56 -1.02,-2.23 0,-0.02 0,-0.04 -0.01,-0.04 0,-0.08 -0.58,-1.42 -1.7,-4.02 -0.21,-0.7 -0.51,-1.04 -0.9,-1.04l-0.03 0c-0.4,0 -0.7,0.34 -0.91,1.04 -0.39,0.87 -0.7,1.61 -0.96,2.2 -0.46,1.08 -1.06,2.46 -1.77,4.09 -0.31,0.68 -0.48,1.11 -0.5,1.29 -0.01,0.03 -0.01,0.08 0,0.11l0.02 0.15c0,0.01 0.01,0.04 0.02,0.05 0.15,0.4 0.39,0.59 0.72,0.59zm2.26 -4.06c0.04,-0.08 0.07,-0.15 0.09,-0.24 0.07,-0.17 0.15,-0.34 0.22,-0.51 0.24,-0.57 0.51,-1.19 0.81,-1.88l0.03 0c0.29,0.69 0.56,1.31 0.8,1.88 0.07,0.17 0.15,0.34 0.21,0.51 0.03,0.09 0.06,0.16 0.1,0.24l-2.26 0z"/>
  <path class="fil7" d="M87.73 16.64l2.81 0c0.66,0 1.21,-0.17 1.63,-0.49 0.66,-0.58 1,-1.32 1,-2.16l0 -0.16c0,-0.72 -0.24,-1.39 -0.73,-2l0 0c0.38,-0.58 0.59,-1.19 0.59,-1.83 0,-0.24 -0.04,-0.53 -0.12,-0.88 -0.41,-1.35 -1.24,-2.03 -2.5,-2.03l-2.57 0c-0.09,0 -0.18,0 -0.29,0.04 -0.03,0 -0.04,0.01 -0.06,0.03 -0.33,0.18 -0.51,0.43 -0.51,0.77l0 7.83c0,0.09 0.02,0.16 0.06,0.29 0.14,0.39 0.38,0.59 0.69,0.59zm0.79 -5.61l0 -2.23 2.04 0c0.1,0 0.2,0.01 0.3,0.05 0.41,0.21 0.63,0.56 0.63,1.07l0 0.17c0,0.16 -0.06,0.33 -0.15,0.54 -0.14,0.26 -0.45,0.4 -0.93,0.4l-1.89 0zm0 3.9l0 -2.21 2.08 0c0.17,0 0.32,0.01 0.41,0.06 0.42,0.2 0.64,0.59 0.64,1.13 0,0.08 -0.02,0.16 -0.03,0.21 -0.09,0.55 -0.37,0.81 -0.87,0.81l-2.23 0z"/>
  <path class="fil7" d="M97.82 16.64l0.02 0c0.08,0 0.13,-0.02 0.18,-0.04 0.38,-0.13 0.59,-0.44 0.59,-0.94l0 -7.58c0,-0.11 0,-0.2 -0.01,-0.29 0,-0.02 -0.01,-0.05 -0.03,-0.07 -0.14,-0.4 -0.38,-0.6 -0.73,-0.6l-0.02 0c-0.05,0 -0.11,0.01 -0.17,0.02 -0.39,0.15 -0.58,0.44 -0.58,0.84l0 7.78c0,0.08 0.01,0.16 0.03,0.25 0.01,0.03 0.01,0.04 0.02,0.06 0.16,0.38 0.4,0.57 0.7,0.57z"/>
  <path class="fil7" d="M103.26 16.64l4.27 0c0.41,0 0.68,-0.23 0.81,-0.64 0.01,-0.03 0.01,-0.05 0.01,-0.08 0,-0.06 0.02,-0.12 0.02,-0.16 0,-0.36 -0.2,-0.64 -0.59,-0.79 -0.07,-0.02 -0.16,-0.02 -0.25,-0.02l-3.48 0 0 -6.9c0,-0.11 0,-0.19 -0.03,-0.28 -0.14,-0.44 -0.38,-0.65 -0.72,-0.65 -0.03,0 -0.09,0 -0.14,0.01 -0.03,0 -0.05,0 -0.07,0.01 -0.38,0.17 -0.58,0.45 -0.58,0.92l0 7.73c0,0.2 0.07,0.37 0.18,0.52 0.15,0.23 0.34,0.33 0.57,0.33z"/>
  <path class="fil7" d="M113.01 16.64l0.03 0c0.08,0 0.13,-0.02 0.18,-0.04 0.38,-0.13 0.59,-0.44 0.59,-0.94l0 -7.58c0,-0.11 0,-0.2 -0.01,-0.29 0,-0.02 -0.02,-0.05 -0.03,-0.07 -0.14,-0.4 -0.38,-0.6 -0.73,-0.6l-0.03 0c-0.04,0 -0.1,0.01 -0.17,0.02 -0.38,0.15 -0.57,0.44 -0.57,0.84l0 7.78c0,0.08 0.01,0.16 0.03,0.25 0.01,0.03 0.01,0.04 0.02,0.06 0.16,0.38 0.4,0.57 0.69,0.57z"/>
  <path class="fil7" d="M118.46 16.64l2.39 0c1.31,0 2.35,-0.44 3.09,-1.28 0.85,-1 1.27,-2.17 1.27,-3.52 0,-0.45 -0.07,-0.95 -0.21,-1.52 -0.65,-2.12 -2.03,-3.2 -4.13,-3.2l-2.41 0c-0.04,0 -0.08,0 -0.14,0.01l-0.07 0.01c-0.36,0.18 -0.54,0.45 -0.54,0.86l0 7.76c0,0.04 0,0.08 0.01,0.11 0.01,0.05 0.01,0.12 0.05,0.18l0.02 0.07c0.06,0.15 0.12,0.25 0.21,0.33 0.14,0.12 0.29,0.19 0.46,0.19zm0.79 -1.69l0 -6.13 1.86 0c0.38,0 0.77,0.08 1.14,0.25 0.95,0.57 1.42,1.48 1.42,2.72l0 0.11c0,0.35 -0.06,0.73 -0.16,1.08 -0.45,1.3 -1.26,1.97 -2.41,1.97l-1.85 0z"/>
  <path class="fil7" d="M129.41 16.64c0.19,0 0.39,-0.09 0.56,-0.29 0.02,-0.01 0.03,-0.03 0.04,-0.04 0.08,-0.17 0.4,-0.86 0.93,-2.05 0.09,0.01 0.17,0.02 0.24,0.02l3.13 0c0.14,0 0.25,-0.02 0.36,-0.05 0.53,1.2 0.83,1.89 0.94,2.08 0,0.01 0.02,0.03 0.03,0.04 0.17,0.2 0.36,0.29 0.55,0.29 0.32,0 0.56,-0.19 0.72,-0.59 0.01,-0.01 0.02,-0.04 0.02,-0.05l0.02 -0.15c0.01,-0.04 0.01,-0.08 0,-0.11 -0.02,-0.18 -0.19,-0.61 -0.49,-1.29 -0.38,-0.81 -0.72,-1.56 -1.02,-2.23 0,-0.02 0,-0.04 -0.02,-0.04 0,-0.08 -0.57,-1.42 -1.69,-4.02 -0.22,-0.7 -0.51,-1.04 -0.91,-1.04l-0.02 0c-0.41,0 -0.71,0.34 -0.92,1.04 -0.39,0.87 -0.69,1.61 -0.95,2.2 -0.47,1.08 -1.07,2.46 -1.78,4.09 -0.31,0.68 -0.48,1.11 -0.5,1.29 -0.01,0.03 -0.01,0.08 0,0.11l0.02 0.15c0,0.01 0.02,0.04 0.03,0.05 0.14,0.4 0.38,0.59 0.71,0.59zm2.27 -4.06c0.03,-0.08 0.06,-0.15 0.09,-0.24 0.06,-0.17 0.14,-0.34 0.21,-0.51 0.24,-0.57 0.51,-1.19 0.82,-1.88l0.02 0c0.29,0.69 0.57,1.31 0.8,1.88 0.07,0.17 0.15,0.34 0.22,0.51 0.02,0.09 0.06,0.16 0.09,0.24l-2.25 0z"/>
  <path class="fil7" d="M141.61 16.64l2.39 0c1.31,0 2.36,-0.44 3.09,-1.28 0.85,-1 1.27,-2.17 1.27,-3.52 0,-0.45 -0.07,-0.95 -0.2,-1.52 -0.66,-2.12 -2.04,-3.2 -4.14,-3.2l-2.41 0c-0.03,0 -0.08,0 -0.13,0.01l-0.07 0.01c-0.37,0.18 -0.55,0.45 -0.55,0.86l0 7.76c0,0.04 0,0.08 0.01,0.11 0.02,0.05 0.02,0.12 0.05,0.18l0.02 0.07c0.06,0.15 0.13,0.25 0.22,0.33 0.13,0.12 0.28,0.19 0.45,0.19zm0.79 -1.69l0 -6.13 1.86 0c0.39,0 0.77,0.08 1.15,0.25 0.95,0.57 1.41,1.48 1.41,2.72l0 0.11c0,0.35 -0.06,0.73 -0.16,1.08 -0.45,1.3 -1.25,1.97 -2.41,1.97l-1.85 0z"/>
 </g>
</svg>
